<?xml version="1.0" standalone="no"?>
<!DOCTYPE svg PUBLIC "-//W3C//DTD SVG 20010904//EN"
 "http://www.w3.org/TR/2001/REC-SVG-20010904/DTD/svg10.dtd">
<svg version="1.0" xmlns="http://www.w3.org/2000/svg"
 width="263.000000pt" height="263.000000pt" viewBox="0 0 263.000000 263.000000"
 preserveAspectRatio="xMidYMid meet">
<metadata>
Created by potrace 1.11, written by Peter Selinger 2001-2013
</metadata>
<g transform="translate(0.000000,263.000000) scale(0.100000,-0.100000)"
fill="#000000" stroke="none">
<path d="M2137 2619 c-76 -18 -157 -78 -204 -151 -51 -82 -53 -108 -53 -718 0
-492 -2 -574 -16 -621 -27 -91 -64 -151 -138 -225 -180 -179 -456 -224 -686
-113 -87 43 -203 160 -247 249 -62 127 -63 135 -63 671 l0 486 -31 61 c-36 73
-90 123 -179 166 -58 28 -75 31 -155 31 -82 0 -97 -3 -157 -33 -81 -40 -139
-102 -168 -180 -20 -54 -21 -68 -18 -621 l4 -566 26 -96 c134 -489 529 -848
1032 -935 138 -24 390 -15 511 19 94 27 195 66 280 109 l50 26 61 -58 c90 -83
149 -110 246 -110 105 0 172 26 248 97 40 37 70 77 92 121 l33 67 0 1035 0
1035 -22 47 c-27 58 -91 129 -148 162 -83 49 -204 67 -298 45z"/>
</g>
</svg>
